<svg xmlns="http://www.w3.org/2000/svg" width="242.766" height="35.217" viewBox="0 0 242.766 35.217">
  <g id="Artboard_1_copy" data-name="Artboard 1 copy" transform="translate(-49.31 -16.902)">
    <g id="shape" transform="translate(49.31 18.105)">
      <path id="Path_18411" data-name="Path 18411" d="M66.942,31.255a6.514,6.514,0,0,1,4.993,2.134,6.353,6.353,0,0,1,2.018,5.119v9.431a2.021,2.021,0,0,1-4.039,0V38.531a2.79,2.79,0,0,0-.964-2.273,2.94,2.94,0,0,0-2.115-.964,3.153,3.153,0,0,0-2.273.964,3.082,3.082,0,0,0-.825,2.273v9.294a2.021,2.021,0,0,1-4.039,0v-9.41a3.319,3.319,0,0,0-.825-2.273,2.846,2.846,0,0,0-2.286-.962,2.99,2.99,0,0,0-2.273.962,3.122,3.122,0,0,0-.964,2.273v9.41a2.015,2.015,0,0,1-1.994,2.018h-.024a2.084,2.084,0,0,1-2.021-2.018V38.392a7.279,7.279,0,0,1,7.276-7.274,6.489,6.489,0,0,1,5.14,2.27A7.19,7.19,0,0,1,66.942,31.255ZM92.46,41.766l-11.68-.116A5.461,5.461,0,0,0,82.2,45.117a4.412,4.412,0,0,0,3.211,1.314,3.854,3.854,0,0,0,2.5-.712A6.422,6.422,0,0,0,89.231,44.4a2.039,2.039,0,0,1,2.525-.484l.229.229a1.908,1.908,0,0,1,.413,2.665l-.068.068c-.116.113-.368.481-.481.6A6.52,6.52,0,0,1,90.056,48.9a9.45,9.45,0,0,1-2.018.828,11.108,11.108,0,0,1-2.754.365,7.876,7.876,0,0,1-6.307-2.615,9.82,9.82,0,0,1-2.365-6.793A9.561,9.561,0,0,1,79,33.893a8,8,0,0,1,6.2-2.5,7.544,7.544,0,0,1,6.081,2.5A9.716,9.716,0,0,1,93.433,40.8.91.91,0,0,1,92.46,41.766ZM89.249,38.3c-.6-2.157-1.905-3.35-4.062-3.35a5.928,5.928,0,0,0-1.424.231,3.881,3.881,0,0,0-1.193.6,2.9,2.9,0,0,0-.964,1.077,4.044,4.044,0,0,0-.6,1.314ZM111.9,41.766l-11.693-.116a5.461,5.461,0,0,0,1.424,3.466,4.417,4.417,0,0,0,3.214,1.314,3.864,3.864,0,0,0,2.5-.712A6.343,6.343,0,0,0,108.66,44.4a2,2,0,0,1,2.5-.484l.368.368a1.853,1.853,0,0,1,.229,2.615,5.986,5.986,0,0,1-.365.484,8.129,8.129,0,0,1-1.905,1.561,6.346,6.346,0,0,1-2.157.825,11.11,11.11,0,0,1-2.754.368,7.852,7.852,0,0,1-6.307-2.628,9.8,9.8,0,0,1-2.386-6.793,9.565,9.565,0,0,1,2.386-6.793,7.991,7.991,0,0,1,6.2-2.5,7.556,7.556,0,0,1,6.083,2.5,9.706,9.706,0,0,1,2.155,6.908c.024.549-.2.917-.8.917ZM108.8,38.3c-.6-2.157-1.905-3.35-4.062-3.35a5.928,5.928,0,0,0-1.424.231,3.416,3.416,0,0,0-1.193.6,2.9,2.9,0,0,0-.964,1.077c-.229.484-.6.828-.6,1.314Zm25.405-16.818a2.1,2.1,0,0,1,2.27,2.157l-.229,9.294a6.792,6.792,0,0,1,4.888-1.677A6.864,6.864,0,0,1,146,33.392c1.077,1.2,1.561,2.985,1.561,5.487l-.116,9.063a2.089,2.089,0,1,1-4.175-.137V39.223a5.139,5.139,0,0,0-.712-3.1,2.754,2.754,0,0,0-2.5-.964,3.638,3.638,0,0,0-3.1,1.314c-.6.962-.828,2.5-.941,4.772v6.68a2.09,2.09,0,0,1-4.178-.139l.116-24.33a2.118,2.118,0,0,1,2.249-1.976ZM150.179,40.8a8.346,8.346,0,0,1,2.754-6.307,8.821,8.821,0,0,1,6.569-2.628,8.966,8.966,0,0,1,6.569,2.754,8.827,8.827,0,0,1,2.628,6.569,9.188,9.188,0,0,1-9.323,9.2,8.5,8.5,0,0,1-6.464-2.754,8.957,8.957,0,0,1-2.733-6.816Zm3.942,0a6.5,6.5,0,0,0,1.314,4.178,5.156,5.156,0,0,0,7.392,0,5.88,5.88,0,0,0,1.422-4.062,6.325,6.325,0,0,0-1.314-4.063,4.655,4.655,0,0,0-3.718-1.561,4.559,4.559,0,0,0-3.689,1.566,6.385,6.385,0,0,0-1.4,3.942Zm-26.585-.342a4.565,4.565,0,0,1,1.905,3.695v.116a5.534,5.534,0,0,1-2.026,4.415A7.523,7.523,0,0,1,122.64,50.1a12.576,12.576,0,0,1-6.081-1.684,1.937,1.937,0,0,1-.964-1.314,2.454,2.454,0,0,1,.229-1.561A1.871,1.871,0,0,1,117.5,44.6a2.207,2.207,0,0,1,.941.229,8.572,8.572,0,0,0,4.175,1.314c2.157,0,2.389-1.077,2.389-1.561v-.092c0-.962-1.193-1.314-3.214-2.018-.116,0-.229-.116-.368-.116a10.717,10.717,0,0,1-3.81-1.674,4.331,4.331,0,0,1-1.9-3.81v.116c0-3.353,2.615-5.6,6.569-5.6a11.149,11.149,0,0,1,4.993,1.193,2.6,2.6,0,0,1,1.08,1.193,2.431,2.431,0,0,1-.116,1.561h0a2.225,2.225,0,0,1-1.674,1.077,2.044,2.044,0,0,1-.828-.229,8,8,0,0,0-3.466-.964c-1.314,0-2.018.481-2.018,1.314v.116c0,.962,1.561,1.422,3.327,2.018l.368.116a9.773,9.773,0,0,1,3.579,1.674Z" transform="translate(-49.31 -21.48)" fill="#ff0098"/>
    </g>
    <path id="Path_18412" data-name="Path 18412" d="M534.877,49.04a.717.717,0,0,1-.717-.717V19.417a.717.717,0,1,1,1.435,0V48.323A.717.717,0,0,1,534.877,49.04Z" transform="translate(-357.444 -1.325)" fill="#ff0098"/>
    <path id="Path_18414" data-name="Path 18414" d="M7.951-36.951a5.177,5.177,0,0,1-2.144-.425,3.574,3.574,0,0,1-1.485-1.181A3.025,3.025,0,0,1,3.767-40.3H5.451a2.218,2.218,0,0,0,.7,1.433,2.524,2.524,0,0,0,1.8.582,2.626,2.626,0,0,0,1.78-.564,1.831,1.831,0,0,0,.651-1.45A1.646,1.646,0,0,0,10-41.431a2.44,2.44,0,0,0-.955-.66A14.922,14.922,0,0,0,7.5-42.577,13.61,13.61,0,0,1,5.581-43.2a3.09,3.09,0,0,1-1.233-.981,2.882,2.882,0,0,1-.512-1.8,3.114,3.114,0,0,1,.5-1.754,3.28,3.28,0,0,1,1.415-1.181,4.983,4.983,0,0,1,2.092-.417,4.383,4.383,0,0,1,2.787.851,3.143,3.143,0,0,1,1.224,2.257H10.122a1.873,1.873,0,0,0-.729-1.224,2.591,2.591,0,0,0-1.7-.53,2.465,2.465,0,0,0-1.615.512,1.749,1.749,0,0,0-.625,1.433,1.552,1.552,0,0,0,.373,1.077,2.407,2.407,0,0,0,.92.634q.547.217,1.537.495a14.433,14.433,0,0,1,1.927.651,3.215,3.215,0,0,1,1.25.99,2.878,2.878,0,0,1,.521,1.815,3.186,3.186,0,0,1-.469,1.667,3.446,3.446,0,0,1-1.389,1.268A4.584,4.584,0,0,1,7.951-36.951ZM22.4-46.588v9.516h-1.58v-1.406a3.076,3.076,0,0,1-1.259,1.137,3.889,3.889,0,0,1-1.78.408,4.266,4.266,0,0,1-2-.46,3.345,3.345,0,0,1-1.4-1.38,4.545,4.545,0,0,1-.512-2.24v-5.574h1.563v5.366a3.033,3.033,0,0,0,.712,2.162,2.544,2.544,0,0,0,1.945.755,2.6,2.6,0,0,0,2-.781,3.217,3.217,0,0,0,.729-2.275v-5.227Zm3.907,1.754A3.768,3.768,0,0,1,27.7-46.2a4.182,4.182,0,0,1,2.162-.547,4.453,4.453,0,0,1,2.3.608,4.284,4.284,0,0,1,1.624,1.71,5.345,5.345,0,0,1,.59,2.561,5.462,5.462,0,0,1-.59,2.57,4.364,4.364,0,0,1-1.624,1.754,4.358,4.358,0,0,1-2.3.625,4.147,4.147,0,0,1-2.144-.547,3.911,3.911,0,0,1-1.415-1.363v6.268h-1.58v-14.03h1.58Zm6.459,2.969a3.869,3.869,0,0,0-.434-1.875,3.006,3.006,0,0,0-1.172-1.215,3.245,3.245,0,0,0-1.624-.417,3.16,3.16,0,0,0-1.606.425,3.11,3.11,0,0,0-1.181,1.233,3.82,3.82,0,0,0-.443,1.867,3.857,3.857,0,0,0,.443,1.884,3.11,3.11,0,0,0,1.181,1.233,3.16,3.16,0,0,0,1.606.425,3.193,3.193,0,0,0,1.624-.425,3.052,3.052,0,0,0,1.172-1.233A3.958,3.958,0,0,0,32.766-41.865ZM37.7-44.835A3.768,3.768,0,0,1,39.1-46.2a4.182,4.182,0,0,1,2.162-.547,4.453,4.453,0,0,1,2.3.608,4.284,4.284,0,0,1,1.624,1.71,5.345,5.345,0,0,1,.59,2.561,5.462,5.462,0,0,1-.59,2.57,4.364,4.364,0,0,1-1.624,1.754,4.358,4.358,0,0,1-2.3.625,4.147,4.147,0,0,1-2.144-.547A3.911,3.911,0,0,1,37.7-38.827v6.268h-1.58v-14.03H37.7Zm6.459,2.969a3.869,3.869,0,0,0-.434-1.875,3.005,3.005,0,0,0-1.172-1.215,3.245,3.245,0,0,0-1.624-.417,3.16,3.16,0,0,0-1.606.425,3.11,3.11,0,0,0-1.181,1.233,3.82,3.82,0,0,0-.443,1.867,3.857,3.857,0,0,0,.443,1.884,3.11,3.11,0,0,0,1.181,1.233,3.16,3.16,0,0,0,1.606.425,3.193,3.193,0,0,0,1.624-.425,3.052,3.052,0,0,0,1.172-1.233A3.958,3.958,0,0,0,44.157-41.865Zm4.932-8.057v12.849h-1.58V-49.922Zm3.161,1.789a1.039,1.039,0,0,1-.764-.313,1.039,1.039,0,0,1-.313-.764,1.039,1.039,0,0,1,.313-.764,1.039,1.039,0,0,1,.764-.313.991.991,0,0,1,.738.313,1.055,1.055,0,0,1,.3.764,1.055,1.055,0,0,1-.3.764A.991.991,0,0,1,52.249-48.134Zm.764,1.545v9.516h-1.58v-9.516ZM64.04-42.2a9.3,9.3,0,0,1-.052.955H56.382a3.076,3.076,0,0,0,.964,2.2,3.065,3.065,0,0,0,2.127.79,2.922,2.922,0,0,0,1.71-.478,2.528,2.528,0,0,0,.964-1.276h1.7a4.091,4.091,0,0,1-1.528,2.231,4.612,4.612,0,0,1-2.848.86,4.81,4.81,0,0,1-2.422-.608,4.3,4.3,0,0,1-1.676-1.728,5.358,5.358,0,0,1-.608-2.6,5.435,5.435,0,0,1,.59-2.587,4.144,4.144,0,0,1,1.658-1.71,4.936,4.936,0,0,1,2.457-.6,4.776,4.776,0,0,1,2.4.59,4.088,4.088,0,0,1,1.606,1.624A4.791,4.791,0,0,1,64.04-42.2Zm-1.632-.33a2.915,2.915,0,0,0-.4-1.554,2.6,2.6,0,0,0-1.085-.99,3.385,3.385,0,0,0-1.519-.339,2.929,2.929,0,0,0-2.04.764,3.113,3.113,0,0,0-.964,2.118Zm4.949-2.518a3.031,3.031,0,0,1,1.189-1.268,3.676,3.676,0,0,1,1.884-.451v1.632h-.417q-2.657,0-2.657,2.882v5.175h-1.58v-9.516h1.58Z" transform="translate(181.628 67.189)"/>
    <path id="Path_18413" data-name="Path 18413" d="M6.991-40.121h3.994v1.927H4.56v-12.12H6.991Zm14.135-3.091a5.737,5.737,0,0,1-.069.938H14.023a2.392,2.392,0,0,0,.729,1.632,2.249,2.249,0,0,0,1.58.59,1.985,1.985,0,0,0,1.927-1.163h2.622a4.382,4.382,0,0,1-1.6,2.283,4.664,4.664,0,0,1-2.9.894,5.018,5.018,0,0,1-2.492-.616A4.339,4.339,0,0,1,12.174-40.4a5.347,5.347,0,0,1-.616-2.6,5.447,5.447,0,0,1,.608-2.622,4.241,4.241,0,0,1,1.7-1.736,5.1,5.1,0,0,1,2.518-.608,5.057,5.057,0,0,1,2.457.59A4.155,4.155,0,0,1,20.526-45.7,5.071,5.071,0,0,1,21.125-43.211Zm-2.518-.695a1.928,1.928,0,0,0-.677-1.5,2.4,2.4,0,0,0-1.615-.564,2.207,2.207,0,0,0-1.519.547,2.4,2.4,0,0,0-.755,1.519Zm3.317.868a5.568,5.568,0,0,1,.582-2.587,4.264,4.264,0,0,1,1.58-1.736,4.207,4.207,0,0,1,2.231-.608,3.919,3.919,0,0,1,1.884.434A3.823,3.823,0,0,1,29.5-46.441v-1.372h2.448v9.62H29.5V-39.6A3.616,3.616,0,0,1,28.2-38.48a3.958,3.958,0,0,1-1.9.443,4.088,4.088,0,0,1-2.214-.625,4.375,4.375,0,0,1-1.58-1.762A5.66,5.66,0,0,1,21.925-43.038ZM29.5-43a3.118,3.118,0,0,0-.347-1.519,2.449,2.449,0,0,0-.938-.972,2.506,2.506,0,0,0-1.268-.339,2.462,2.462,0,0,0-1.25.33,2.484,2.484,0,0,0-.929.964,3.019,3.019,0,0,0-.356,1.5,3.118,3.118,0,0,0,.356,1.519,2.563,2.563,0,0,0,.938,1,2.382,2.382,0,0,0,1.242.347,2.506,2.506,0,0,0,1.268-.339,2.449,2.449,0,0,0,.938-.972A3.118,3.118,0,0,0,29.5-43Zm6.911-3.317a3.418,3.418,0,0,1,1.224-1.2,3.4,3.4,0,0,1,1.728-.434V-45.4h-.642a2.462,2.462,0,0,0-1.728.538,2.482,2.482,0,0,0-.582,1.875v4.793H33.976v-9.62h2.431Zm9.568-1.632a3.708,3.708,0,0,1,2.778,1.085,4.155,4.155,0,0,1,1.059,3.03v5.643H47.381v-5.313a2.494,2.494,0,0,0-.573-1.762,2.03,2.03,0,0,0-1.563-.616,2.08,2.08,0,0,0-1.589.616,2.471,2.471,0,0,0-.582,1.762v5.313H40.644v-9.62h2.431v1.2a3.358,3.358,0,0,1,1.242-.981A3.841,3.841,0,0,1,45.975-47.952Zm7.033-1.007a1.481,1.481,0,0,1-1.068-.408,1.35,1.35,0,0,1-.425-1.016A1.35,1.35,0,0,1,51.94-51.4a1.481,1.481,0,0,1,1.068-.408,1.481,1.481,0,0,1,1.068.408,1.35,1.35,0,0,1,.425,1.016,1.35,1.35,0,0,1-.425,1.016A1.481,1.481,0,0,1,53.008-48.959Zm1.2,1.146v9.62H51.775v-9.62Zm7.38-.139a3.708,3.708,0,0,1,2.778,1.085,4.155,4.155,0,0,1,1.059,3.03v5.643H62.992v-5.313a2.494,2.494,0,0,0-.573-1.762,2.029,2.029,0,0,0-1.563-.616,2.08,2.08,0,0,0-1.589.616,2.471,2.471,0,0,0-.582,1.762v5.313H56.255v-9.62h2.431v1.2a3.358,3.358,0,0,1,1.242-.981A3.841,3.841,0,0,1,61.586-47.952Zm9.568-.017a4.037,4.037,0,0,1,1.893.425,3.485,3.485,0,0,1,1.285,1.1v-1.372H76.78v9.689a5.161,5.161,0,0,1-.538,2.388,4,4,0,0,1-1.615,1.667,5.162,5.162,0,0,1-2.6.616,5.564,5.564,0,0,1-3.36-.955,3.54,3.54,0,0,1-1.485-2.6h2.414a1.8,1.8,0,0,0,.825,1.051,2.873,2.873,0,0,0,1.537.391,2.378,2.378,0,0,0,1.719-.634,2.545,2.545,0,0,0,.66-1.919v-1.493a3.693,3.693,0,0,1-1.294,1.129,3.86,3.86,0,0,1-1.884.451,4.132,4.132,0,0,1-2.223-.625,4.353,4.353,0,0,1-1.589-1.762,5.66,5.66,0,0,1-.582-2.613,5.568,5.568,0,0,1,.582-2.587,4.264,4.264,0,0,1,1.58-1.736A4.207,4.207,0,0,1,71.154-47.969ZM74.332-43a3.118,3.118,0,0,0-.347-1.519,2.449,2.449,0,0,0-.938-.972,2.506,2.506,0,0,0-1.268-.339,2.462,2.462,0,0,0-1.25.33,2.484,2.484,0,0,0-.929.964,3.019,3.019,0,0,0-.356,1.5,3.118,3.118,0,0,0,.356,1.519,2.563,2.563,0,0,0,.938,1,2.382,2.382,0,0,0,1.242.347,2.506,2.506,0,0,0,1.268-.339,2.449,2.449,0,0,0,.938-.972A3.118,3.118,0,0,0,74.332-43Z" transform="translate(181.044 85.572)"/>
    <path id="Path_18415" data-name="Path 18415" d="M14.413-48.153v12.1h-1.58v-5.487H6.668v5.487H5.088v-12.1h1.58v5.313h6.164v-5.313ZM25.2-45.565v9.516h-1.58v-1.406a3.076,3.076,0,0,1-1.259,1.137,3.889,3.889,0,0,1-1.78.408,4.266,4.266,0,0,1-2-.46,3.345,3.345,0,0,1-1.4-1.38,4.545,4.545,0,0,1-.512-2.24v-5.574h1.563V-40.2a3.033,3.033,0,0,0,.712,2.162,2.544,2.544,0,0,0,1.945.755,2.6,2.6,0,0,0,2-.781,3.217,3.217,0,0,0,.729-2.275v-5.227ZM29.1-43.794a3.736,3.736,0,0,1,1.424-1.389,4.212,4.212,0,0,1,2.136-.538,4.44,4.44,0,0,1,2.309.608,4.3,4.3,0,0,1,1.615,1.71,5.345,5.345,0,0,1,.59,2.561,5.462,5.462,0,0,1-.59,2.57,4.364,4.364,0,0,1-1.624,1.754,4.358,4.358,0,0,1-2.3.625,4.234,4.234,0,0,1-2.162-.538A3.661,3.661,0,0,1,29.1-37.8v1.754h-1.58V-48.9H29.1Zm6.459,2.952a3.869,3.869,0,0,0-.434-1.875,3.006,3.006,0,0,0-1.172-1.215,3.245,3.245,0,0,0-1.624-.417,3.16,3.16,0,0,0-1.606.425,3.11,3.11,0,0,0-1.181,1.233,3.82,3.82,0,0,0-.443,1.867,3.857,3.857,0,0,0,.443,1.884,3.11,3.11,0,0,0,1.181,1.233,3.16,3.16,0,0,0,1.606.425,3.193,3.193,0,0,0,1.624-.425,3.052,3.052,0,0,0,1.172-1.233A3.958,3.958,0,0,0,35.563-40.842Z" transform="translate(254.898 83.428)"/>
  </g>
</svg>
